<svg version="1.1" id="Layer_1" xmlns="http://www.w3.org/2000/svg" xmlns:xlink="http://www.w3.org/1999/xlink" x="0px" y="0px"
	 width="100%" viewBox="0 0 1124 1154" enable-background="new 0 0 1124 1154" xml:space="preserve">
<path fill="#171717" opacity="1.000000" stroke="none" 
	d="
M1.000000,440.000000 
	C1.000000,293.333344 1.000000,147.166672 1.000000,1.000000 
	C375.666656,1.000000 750.333313,1.000000 1125.000000,1.000000 
	C1125.000000,385.666656 1125.000000,770.333313 1125.000000,1155.000000 
	C750.333313,1155.000000 375.666656,1155.000000 1.000000,1155.000000 
	C1.000000,916.833313 1.000000,678.666687 1.000000,440.000000 
M705.832703,1124.112915 
	C714.537659,1121.387329 723.478699,1119.243042 731.901062,1115.821777 
	C753.072388,1107.221802 774.009460,1098.045044 795.760986,1089.020264 
	C825.546631,1074.110107 853.892517,1056.893555 880.796021,1036.077271 
	C885.819641,1032.117920 890.900208,1028.228271 895.857056,1024.187012 
	C919.713013,1004.737427 941.610229,983.269409 961.725342,959.981873 
	C962.999084,958.507141 963.942627,956.747192 965.689331,954.903992 
	C966.393799,954.207031 967.173157,953.570557 967.792175,952.804565 
	C1066.884644,830.168701 1106.605713,690.554932 1085.602173,534.363525 
	C1074.489624,451.727112 1043.886963,376.157837 996.505493,307.490356 
	C981.359436,285.540039 964.880310,264.641296 945.926453,244.972488 
	C925.694031,223.465836 904.163940,203.311295 880.194153,186.078766 
	C862.009277,173.005066 842.866089,161.264252 823.737732,148.375641 
	C792.396729,130.325653 759.596313,115.542747 724.584656,104.020874 
	C694.412781,94.085945 663.646484,86.721222 631.430664,82.259880 
	C613.230347,80.654640 595.056763,78.490593 576.821350,77.621101 
	C562.252991,76.926453 547.609619,77.807693 532.079712,77.822021 
	C497.840515,79.236076 464.095093,84.074440 430.031128,92.497704 
	C423.124695,94.328804 416.176147,96.015526 409.319305,98.016518 
	C382.805603,105.753838 356.860352,115.020073 331.298828,127.240906 
	C330.851257,127.460297 330.406189,127.684975 329.955750,127.898331 
	C296.265656,143.855453 264.318176,162.683090 234.221344,185.890457 
	C219.387558,198.459030 204.082840,210.518936 189.829666,223.714645 
	C168.103836,243.828629 148.251526,265.745392 130.359421,290.215881 
	C43.637737,408.354645 9.319877,540.202087 28.406088,685.444031 
	C38.455681,761.919312 64.903038,832.859131 106.729500,897.720581 
	C119.045815,916.819763 133.542114,934.513184 147.263733,953.495544 
	C164.634857,974.878296 184.005600,994.327454 204.703217,1012.455383 
	C227.292160,1032.239746 251.185196,1050.286987 277.536835,1066.165527 
	C300.666168,1078.156616 323.453857,1090.880371 347.044891,1101.881470 
	C362.764496,1109.211792 379.629608,1114.085815 396.537445,1120.540405 
	C416.452515,1125.608765 436.203979,1131.500732 456.331421,1135.500488 
	C474.339081,1139.078979 492.761261,1140.571411 511.788208,1143.258179 
	C518.216309,1143.837891 524.638306,1144.818848 531.073792,1144.917603 
	C546.499451,1145.154297 561.942078,1145.324951 577.357300,1144.851562 
	C588.920776,1144.496582 600.452148,1143.097778 612.895447,1142.280518 
	C625.726868,1140.508545 638.691345,1139.389648 651.357727,1136.808105 
	C669.365662,1133.137939 687.154541,1128.392334 705.832703,1124.112915 
z"/>
<path fill="#6EEBFA" opacity="1.000000" stroke="none" 
	d="
M946.179443,245.564255 
	C964.880310,264.641296 981.359436,285.540039 996.505493,307.490356 
	C1043.886963,376.157837 1074.489624,451.727112 1085.602173,534.363525 
	C1106.605713,690.554932 1066.884644,830.168701 967.792175,952.804565 
	C967.173157,953.570557 966.393799,954.207031 965.355591,954.535767 
	C965.014404,926.254395 965.025757,898.341187 964.961975,870.428223 
	C964.957153,868.325439 965.978333,865.455566 962.449890,864.696228 
	C1018.323608,773.431152 1042.189819,674.843506 1033.072021,568.462952 
	C1027.910522,508.242249 1011.933167,450.905029 984.186584,397.238312 
	C972.454895,374.547272 958.051941,353.237366 944.894287,330.813110 
	C944.950317,305.188995 944.934570,280.051178 945.051636,254.913986 
	C945.066162,251.795731 945.786316,248.680756 946.179443,245.564255 
z"/>
<path fill="#68ACF7" opacity="1.000000" stroke="none" 
	d="
M147.039322,952.850891 
	C133.542114,934.513184 119.045815,916.819763 106.729500,897.720581 
	C64.903038,832.859131 38.455681,761.919312 28.406088,685.444031 
	C9.319877,540.202087 43.637737,408.354645 130.791931,290.364349 
	C131.400101,299.028595 131.693253,307.544006 131.719559,316.060242 
	C131.747879,325.234070 131.475311,334.408386 131.427887,343.582977 
	C131.380280,352.789001 131.249100,362.001770 131.534210,371.199829 
	C131.731781,377.574005 132.572891,383.928192 133.078827,390.635986 
	C102.241112,450.800171 84.378319,514.264526 80.253098,581.411865 
	C75.560387,657.796326 88.235619,731.325256 119.049171,801.422791 
	C127.656570,821.003723 138.362076,839.662354 147.951538,859.104919 
	C147.293427,861.560242 146.344696,863.657043 146.355759,865.748779 
	C146.433029,880.339600 146.775772,894.928772 146.902588,909.519592 
	C147.028107,923.962646 147.000031,938.407043 147.039322,952.850891 
z"/>
<path fill="#69B5F7" opacity="1.000000" stroke="none" 
	d="
M147.151520,953.173218 
	C147.000031,938.407043 147.028107,923.962646 146.902588,909.519592 
	C146.775772,894.928772 146.433029,880.339600 146.355759,865.748779 
	C146.344696,863.657043 147.293427,861.560242 148.227814,859.313477 
	C163.475098,883.151367 179.127853,906.538879 198.638016,927.061157 
	C209.292755,938.268555 219.605545,949.892090 231.081619,960.205139 
	C246.271118,973.855225 262.448395,986.406128 278.049194,999.810547 
	C277.838928,1007.658997 277.821381,1015.126892 277.713470,1022.593445 
	C277.505768,1036.960815 277.246857,1051.327393 277.009216,1065.694336 
	C251.185196,1050.286987 227.292160,1032.239746 204.703217,1012.455383 
	C184.005600,994.327454 164.634857,974.878296 147.151520,953.173218 
z"/>
<path fill="#6DE2F9" opacity="1.000000" stroke="none" 
	d="
M946.052979,245.268372 
	C945.786316,248.680756 945.066162,251.795731 945.051636,254.913986 
	C944.934570,280.051178 944.950317,305.188995 944.598450,330.638428 
	C927.059387,307.207977 907.834473,285.228180 886.624023,264.975922 
	C867.116699,246.349899 845.947632,229.794647 823.819580,213.947662 
	C823.526428,211.536636 823.044373,209.564301 823.037903,207.590378 
	C822.978638,189.608368 822.973755,171.625961 823.051453,153.644104 
	C823.058289,152.071304 823.766785,150.501526 824.149353,148.930344 
	C842.866089,161.264252 862.009277,173.005066 880.194153,186.078766 
	C904.163940,203.311295 925.694031,223.465836 946.052979,245.268372 
z"/>
<path fill="#68B3F7" opacity="1.000000" stroke="none" 
	d="
M133.126465,390.291321 
	C132.572891,383.928192 131.731781,377.574005 131.534210,371.199829 
	C131.249100,362.001770 131.380280,352.789001 131.427887,343.582977 
	C131.475311,334.408386 131.747879,325.234070 131.719559,316.060242 
	C131.693253,307.544006 131.400101,299.028595 131.076538,290.180023 
	C148.251526,265.745392 168.103836,243.828629 189.829666,223.714645 
	C204.082840,210.518936 219.387558,198.459030 234.572861,186.248947 
	C234.949692,207.406158 234.926941,228.205200 235.061462,249.003220 
	C235.078217,251.590103 235.929184,254.171600 236.214005,257.012817 
	C210.619568,280.624329 187.257706,305.881592 167.853577,334.450500 
	C155.547913,352.568329 144.653687,371.644775 133.126465,390.291321 
z"/>
<path fill="#69BDF8" opacity="1.000000" stroke="none" 
	d="
M277.273010,1065.929932 
	C277.246857,1051.327393 277.505768,1036.960815 277.713470,1022.593445 
	C277.821381,1015.126892 277.838928,1007.658997 278.369293,999.965332 
	C303.882141,1017.475159 330.194977,1033.047607 358.200165,1045.618286 
	C371.065582,1051.393311 384.242767,1056.473877 397.012482,1062.166260 
	C396.830780,1065.883057 397.040955,1069.305298 396.978058,1072.722534 
	C396.687622,1088.502197 396.321198,1104.280518 395.981995,1120.059326 
	C379.629608,1114.085815 362.764496,1109.211792 347.044891,1101.881470 
	C323.453857,1090.880371 300.666168,1078.156616 277.273010,1065.929932 
z"/>
<path fill="#6DE4FA" opacity="1.000000" stroke="none" 
	d="
M962.331482,865.003784 
	C965.978333,865.455566 964.957153,868.325439 964.961975,870.428223 
	C965.025757,898.341187 965.014404,926.254395 965.030762,954.643677 
	C963.942627,956.747192 962.999084,958.507141 961.725342,959.981873 
	C941.610229,983.269409 919.713013,1004.737427 895.857056,1024.187012 
	C890.900208,1028.228271 885.819641,1032.117920 880.229980,1035.900879 
	C878.776062,1033.372803 877.144226,1031.029785 877.117065,1028.668213 
	C876.880005,1008.021851 876.929688,987.372253 877.038940,966.431396 
	C886.454407,957.079407 895.970032,948.254822 904.947449,938.913086 
	C926.667847,916.311218 945.358459,891.313904 962.331482,865.003784 
z"/>
<path fill="#69BAF7" opacity="1.000000" stroke="none" 
	d="
M236.393600,256.755585 
	C235.929184,254.171600 235.078217,251.590103 235.061462,249.003220 
	C234.926941,228.205200 234.949692,207.406158 234.895233,186.114502 
	C264.318176,162.683090 296.265656,143.855453 329.955750,127.898331 
	C330.406189,127.684975 330.851257,127.460297 331.739716,127.602173 
	C332.453674,130.251053 332.953247,132.537659 332.963348,134.826447 
	C333.032867,150.568420 332.951843,166.311188 333.059326,182.052750 
	C333.073242,184.090195 333.890808,186.122162 334.116302,188.430542 
	C322.999695,195.044785 311.934875,201.115524 301.240753,207.781067 
	C278.173492,222.158615 256.649109,238.629440 236.393600,256.755585 
z"/>
<path fill="#6AC5F8" opacity="1.000000" stroke="none" 
	d="
M396.259705,1120.299805 
	C396.321198,1104.280518 396.687622,1088.502197 396.978058,1072.722534 
	C397.040955,1069.305298 396.830780,1065.883057 397.380188,1062.176636 
	C410.065948,1065.588867 422.048279,1069.536133 434.184326,1072.934326 
	C459.348633,1079.980957 485.100433,1083.983521 510.971954,1087.519897 
	C510.629913,1089.891357 510.023315,1091.853760 510.053040,1093.806519 
	C510.302826,1110.200073 510.669281,1126.592041 511.000549,1142.984375 
	C492.761261,1140.571411 474.339081,1139.078979 456.331421,1135.500488 
	C436.203979,1131.500732 416.452515,1125.608765 396.259705,1120.299805 
z"/>
<path fill="#6CDAF9" opacity="1.000000" stroke="none" 
	d="
M823.943542,148.652985 
	C823.766785,150.501526 823.058289,152.071304 823.051453,153.644104 
	C822.973755,171.625961 822.978638,189.608368 823.037903,207.590378 
	C823.044373,209.564301 823.526428,211.536636 823.488281,213.823029 
	C816.433716,209.868698 809.742859,205.495468 802.912415,201.352325 
	C777.514404,185.946609 750.670288,173.520721 723.005615,162.346497 
	C723.003418,146.238724 722.870911,130.585342 723.099792,114.937233 
	C723.151489,111.400124 724.460205,107.881386 725.190308,104.354187 
	C759.596313,115.542747 792.396729,130.325653 823.943542,148.652985 
z"/>
<path fill="#6AC0F8" opacity="1.000000" stroke="none" 
	d="
M334.336121,188.156693 
	C333.890808,186.122162 333.073242,184.090195 333.059326,182.052750 
	C332.951843,166.311188 333.032867,150.568420 332.963348,134.826447 
	C332.953247,132.537659 332.453674,130.251053 332.093262,127.565674 
	C356.860352,115.020073 382.805603,105.753838 409.319305,98.016518 
	C416.176147,96.015526 423.124695,94.328804 430.472839,92.965012 
	C430.942993,112.283173 430.971436,131.134018 430.692261,150.195114 
	C416.690277,154.884705 402.718048,158.669662 389.368652,164.011246 
	C370.780151,171.449173 352.657898,180.052292 334.336121,188.156693 
z"/>
<path fill="#6AC5F8" opacity="1.000000" stroke="none" 
	d="
M430.999847,149.984879 
	C430.971436,131.134018 430.942993,112.283173 430.884918,92.925591 
	C464.095093,84.074440 497.840515,79.236076 532.539429,78.375084 
	C533.334167,97.204933 533.669189,115.481728 533.561157,133.854736 
	C515.455750,135.846039 497.692322,137.092606 480.160309,139.824249 
	C463.646698,142.397247 447.376892,146.535324 430.999847,149.984879 
z"/>
<path fill="#6BCDF9" opacity="1.000000" stroke="none" 
	d="
M511.394409,1143.121338 
	C510.669281,1126.592041 510.302826,1110.200073 510.053040,1093.806519 
	C510.023315,1091.853760 510.629913,1089.891357 511.403442,1087.464355 
	C527.029236,1087.679932 542.201355,1089.053345 557.354797,1088.871826 
	C575.578918,1088.653564 593.787292,1087.112549 612.001648,1086.603760 
	C611.999817,1105.430176 611.998779,1123.796875 611.997803,1142.163574 
	C600.452148,1143.097778 588.920776,1144.496582 577.357300,1144.851562 
	C561.942078,1145.324951 546.499451,1145.154297 531.073792,1144.917603 
	C524.638306,1144.818848 518.216309,1143.837891 511.394409,1143.121338 
z"/>
<path fill="#6DDFF9" opacity="1.000000" stroke="none" 
	d="
M876.894287,966.723572 
	C876.929688,987.372253 876.880005,1008.021851 877.117065,1028.668213 
	C877.144226,1031.029785 878.776062,1033.372803 879.907837,1036.029785 
	C853.892517,1056.893555 825.546631,1074.110107 795.235413,1088.669434 
	C794.473267,1086.025635 794.043030,1083.733765 794.030640,1081.439453 
	C793.931580,1063.174683 793.911865,1044.909546 794.083374,1026.393311 
	C800.681580,1022.289917 807.117371,1018.522583 813.437378,1014.570129 
	C835.981018,1000.471558 856.802734,984.079529 876.894287,966.723572 
z"/>
<path fill="#6BCDF9" opacity="1.000000" stroke="none" 
	d="
M534.004272,133.758514 
	C533.669189,115.481728 533.334167,97.204933 532.999268,78.458801 
	C547.609619,77.807693 562.252991,76.926453 576.821350,77.621101 
	C595.056763,78.490593 613.230347,80.654640 631.727783,82.891975 
	C631.689087,85.475197 631.038452,87.430923 631.066956,89.376717 
	C631.308411,105.896301 631.673584,122.414085 631.577515,138.980759 
	C619.578613,137.676407 608.034363,135.642303 596.422119,135.120361 
	C575.637756,134.186142 554.812439,134.162689 534.004272,133.758514 
z"/>
<path fill="#6CD3F9" opacity="1.000000" stroke="none" 
	d="
M612.446655,1142.222046 
	C611.998779,1123.796875 611.999817,1105.430176 612.403320,1086.498657 
	C626.220337,1083.734619 639.764465,1082.121582 653.017273,1079.191162 
	C670.464600,1075.333252 687.682983,1070.439819 705.027649,1066.412598 
	C705.370361,1069.966064 705.926880,1073.096436 705.956726,1076.231812 
	C706.065918,1087.725098 706.087646,1099.220825 705.955872,1110.713623 
	C705.904663,1115.180786 705.358032,1119.642212 705.037048,1124.106201 
	C687.154541,1128.392334 669.365662,1133.137939 651.357727,1136.808105 
	C638.691345,1139.389648 625.726868,1140.508545 612.446655,1142.222046 
z"/>
<path fill="#6CDAF9" opacity="1.000000" stroke="none" 
	d="
M705.434875,1124.109619 
	C705.358032,1119.642212 705.904663,1115.180786 705.955872,1110.713623 
	C706.087646,1099.220825 706.065918,1087.725098 705.956726,1076.231812 
	C705.926880,1073.096436 705.370361,1069.966064 705.311523,1066.182617 
	C712.291138,1063.140137 719.225281,1061.212280 725.700073,1058.272583 
	C748.507812,1047.917480 771.157898,1037.215210 793.867798,1026.644531 
	C793.911865,1044.909546 793.931580,1063.174683 794.030640,1081.439453 
	C794.043030,1083.733765 794.473267,1086.025635 794.875122,1088.708984 
	C774.009460,1098.045044 753.072388,1107.221802 731.901062,1115.821777 
	C723.478699,1119.243042 714.537659,1121.387329 705.434875,1124.109619 
z"/>
<path fill="#6CD3F9" opacity="1.000000" stroke="none" 
	d="
M632.001587,138.932404 
	C631.673584,122.414085 631.308411,105.896301 631.066956,89.376717 
	C631.038452,87.430923 631.689087,85.475197 632.073181,83.080612 
	C663.646484,86.721222 694.412781,94.085945 724.887451,104.187531 
	C724.460205,107.881386 723.151489,111.400124 723.099792,114.937233 
	C722.870911,130.585342 723.003418,146.238724 722.639648,162.328705 
	C709.962463,158.801605 697.804871,154.238144 685.301819,151.014023 
	C667.669067,146.467102 649.780701,142.911713 632.001587,138.932404 
z"/>
<path fill="#171717" opacity="1.000000" stroke="none" 
	d="
M631.577515,138.980759 
	C649.780701,142.911713 667.669067,146.467102 685.301819,151.014023 
	C697.804871,154.238144 709.962463,158.801605 722.640259,162.785004 
	C750.670288,173.520721 777.514404,185.946609 802.912415,201.352325 
	C809.742859,205.495468 816.433716,209.868698 823.519897,214.260971 
	C845.947632,229.794647 867.116699,246.349899 886.624023,264.975922 
	C907.834473,285.228180 927.059387,307.207977 944.567261,331.124969 
	C958.051941,353.237366 972.454895,374.547272 984.186584,397.238312 
	C1011.933167,450.905029 1027.910522,508.242249 1033.072021,568.462952 
	C1042.189819,674.843506 1018.323608,773.431152 962.449890,864.696228 
	C945.358459,891.313904 926.667847,916.311218 904.947449,938.913086 
	C895.970032,948.254822 886.454407,957.079407 877.038879,966.431396 
	C856.802734,984.079529 835.981018,1000.471558 813.437378,1014.570129 
	C807.117371,1018.522583 800.681580,1022.289917 794.083374,1026.393311 
	C771.157898,1037.215210 748.507812,1047.917480 725.700073,1058.272583 
	C719.225281,1061.212280 712.291138,1063.140137 705.283691,1065.761841 
	C687.682983,1070.439819 670.464600,1075.333252 653.017273,1079.191162 
	C639.764465,1082.121582 626.220337,1083.734619 612.404175,1086.039062 
	C593.787292,1087.112549 575.578918,1088.653564 557.354797,1088.871826 
	C542.201355,1089.053345 527.029236,1087.679932 511.433899,1087.050903 
	C485.100433,1083.983521 459.348633,1079.980957 434.184326,1072.934326 
	C422.048279,1069.536133 410.065948,1065.588867 397.646301,1061.879761 
	C384.242767,1056.473877 371.065582,1051.393311 358.200165,1045.618286 
	C330.194977,1033.047607 303.882141,1017.475159 278.521179,999.584229 
	C262.448395,986.406128 246.271118,973.855225 231.081619,960.205139 
	C219.605545,949.892090 209.292755,938.268555 198.638016,927.061157 
	C179.127853,906.538879 163.475098,883.151367 148.381378,858.952637 
	C138.362076,839.662354 127.656570,821.003723 119.049171,801.422791 
	C88.235619,731.325256 75.560387,657.796326 80.253098,581.411865 
	C84.378319,514.264526 102.241112,450.800171 133.078827,390.635986 
	C144.653687,371.644775 155.547913,352.568329 167.853577,334.450500 
	C187.257706,305.881592 210.619568,280.624329 236.214005,257.012817 
	C256.649109,238.629440 278.173492,222.158615 301.240753,207.781067 
	C311.934875,201.115524 322.999695,195.044785 334.116272,188.430542 
	C352.657898,180.052292 370.780151,171.449173 389.368652,164.011246 
	C402.718048,158.669662 416.690277,154.884705 430.692261,150.195114 
	C447.376892,146.535324 463.646698,142.397247 480.160309,139.824249 
	C497.692322,137.092606 515.455750,135.846039 533.561157,133.854736 
	C554.812439,134.162689 575.637756,134.186142 596.422119,135.120361 
	C608.034363,135.642303 619.578613,137.676407 631.577515,138.980759 
M517.605164,854.656921 
	C521.653870,855.300049 525.689697,856.041748 529.753418,856.569092 
	C547.540161,858.877319 565.336182,859.170410 584.012085,856.645447 
	C607.202820,853.457092 629.215820,846.479980 650.874390,836.028198 
	C655.950806,833.186157 660.912476,830.110901 666.124573,827.544434 
	C684.075928,818.705322 699.965576,806.888306 715.825928,793.884888 
	C737.627625,775.656067 757.868225,755.852783 776.740295,733.775024 
	C806.872498,699.438416 832.679993,661.956482 857.483032,623.297913 
	C851.117615,619.272400 845.029846,615.422485 838.450500,611.261658 
	C845.127441,607.010498 851.210510,603.137451 857.615234,599.059570 
	C848.611267,585.554199 840.398438,572.228638 831.182007,559.637634 
	C815.771729,538.584717 799.720337,518.001099 783.709351,496.573212 
	C780.287598,492.731232 777.000061,488.758911 773.420349,485.070221 
	C759.494629,470.721039 745.476135,456.461853 731.134521,441.649292 
	C725.299194,436.687744 719.780884,431.281250 713.565430,426.853363 
	C698.680420,416.249298 683.467407,406.105469 667.950562,395.225067 
	C651.509033,385.718628 634.213074,378.082123 616.036133,372.669189 
	C607.551819,370.142609 598.691162,368.880066 589.263611,366.732300 
	C559.760803,361.622345 530.670654,363.533295 501.161316,371.819183 
	C492.549835,374.869019 483.773529,377.524841 475.358948,381.045288 
	C453.325500,390.263397 432.807800,402.166260 413.387878,417.185638 
	C398.353149,430.040649 382.837402,442.383789 368.438080,455.915009 
	C357.219635,466.457092 347.390472,478.477570 336.346008,490.160309 
	C306.977570,524.250732 281.215942,560.946228 257.133636,599.278503 
	C263.451416,603.306213 269.489014,607.155334 275.935333,611.265015 
	C269.142975,615.592346 263.148285,619.411438 256.719391,623.507141 
	C268.862335,641.362244 280.369110,659.092102 292.723969,676.209839 
	C304.000183,691.833069 316.195190,706.793213 328.174774,722.692932 
	C342.494446,738.197693 356.672546,753.836914 371.206635,769.138062 
	C376.681763,774.902283 382.981476,779.883362 389.213013,785.804138 
	C400.324280,794.561707 411.102478,803.791870 422.649872,811.930664 
	C432.265808,818.708191 442.784698,824.204529 453.348053,830.766235 
	C457.765991,833.005798 462.104248,835.422241 466.616180,837.453003 
	C482.829712,844.750610 499.386841,851.057739 517.605164,854.656921 
z"/>
<path fill="#6EEAFA" opacity="1.000000" stroke="none" 
	d="
M783.938782,497.219910 
	C799.720337,518.001099 815.771729,538.584717 831.182007,559.637634 
	C840.398438,572.228638 848.611267,585.554199 857.615234,599.059570 
	C851.210510,603.137451 845.127441,607.010498 838.450500,611.261658 
	C845.029846,615.422485 851.117615,619.272400 857.483032,623.297913 
	C832.679993,661.956482 806.872498,699.438416 776.159424,733.652710 
	C775.052490,731.160583 774.087830,728.794006 774.070190,726.420349 
	C773.940308,708.967651 774.041382,691.513306 773.944031,674.060181 
	C773.932556,672.007812 773.158020,669.959717 772.844055,667.578308 
	C784.984314,649.890259 796.958069,632.491455 809.109924,615.218018 
	C811.150757,612.317017 811.175842,610.203430 809.153320,607.269287 
	C799.719788,593.583801 790.509705,579.744385 781.409790,565.599121 
	C781.733276,563.255188 781.979065,561.272400 781.982361,559.289185 
	C782.012451,541.301270 781.919739,523.312683 782.086731,505.326294 
	C782.111877,502.618652 783.292603,499.921783 783.938782,497.219910 
z"/>
<path fill="#68ACF7" opacity="1.000000" stroke="none" 
	d="
M327.985260,722.045593 
	C316.195190,706.793213 304.000183,691.833069 292.723969,676.209839 
	C280.369110,659.092102 268.862335,641.362244 256.719391,623.507141 
	C263.148285,619.411438 269.142975,615.592346 275.935333,611.265015 
	C269.489014,607.155334 263.451416,603.306213 257.133636,599.278503 
	C281.215942,560.946228 306.977570,524.250732 336.658966,490.479523 
	C336.981140,510.871338 336.907990,530.944824 337.127441,551.015137 
	C337.149292,553.013611 338.953278,554.992676 339.847137,557.309937 
	C328.338440,574.185486 316.964935,590.768311 305.437012,607.243042 
	C303.460144,610.068115 303.285492,612.176025 305.321564,615.142090 
	C313.498993,627.054688 321.400391,639.156738 329.308533,651.655212 
	C328.808502,655.555359 328.073425,658.987183 328.053375,662.423157 
	C327.937256,682.296814 327.989807,702.171326 327.985260,722.045593 
z"/>
<path fill="#69B5F7" opacity="1.000000" stroke="none" 
	d="
M339.930176,556.980713 
	C338.953278,554.992676 337.149292,553.013611 337.127441,551.015137 
	C336.907990,530.944824 336.981140,510.871338 336.957886,490.319885 
	C347.390472,478.477570 357.219635,466.457092 368.438080,455.915009 
	C382.837402,442.383789 398.353149,430.040649 413.945526,417.450836 
	C414.668793,428.991791 414.703125,440.271606 415.049225,451.541809 
	C415.257050,458.310547 415.951324,465.064331 416.257874,472.087616 
	C404.313934,484.069946 391.947296,495.261993 380.911957,507.640778 
	C366.693573,523.590149 353.541504,540.490173 339.930176,556.980713 
z"/>
<path fill="#6AC0F8" opacity="1.000000" stroke="none" 
	d="
M416.427002,471.824829 
	C415.951324,465.064331 415.257050,458.310547 415.049225,451.541809 
	C414.703125,440.271606 414.668793,428.991791 414.279602,417.371216 
	C432.807800,402.166260 453.325500,390.263397 475.358948,381.045288 
	C483.773529,377.524841 492.549835,374.869019 501.568970,372.319305 
	C501.984467,385.686432 501.942230,398.553833 502.047455,411.420044 
	C502.065918,413.678833 502.702545,415.932526 502.809509,418.438965 
	C490.532684,424.315216 477.745911,428.758484 466.641388,435.839722 
	C449.304260,446.895447 433.107147,459.738892 416.427002,471.824829 
z"/>
<path fill="#68B3F7" opacity="1.000000" stroke="none" 
	d="
M328.080017,722.369263 
	C327.989807,702.171326 327.937256,682.296814 328.053375,662.423157 
	C328.073425,658.987183 328.808502,655.555359 329.572205,651.900269 
	C334.180054,657.492188 338.124329,663.560120 342.733124,669.072510 
	C358.694427,688.162659 374.886810,707.059631 390.831970,726.357300 
	C390.308960,728.895325 389.729614,731.096375 389.629730,733.319092 
	C389.460907,737.075134 389.605347,740.844910 389.600372,744.608887 
	C389.591248,751.473328 389.647003,758.339050 389.530304,765.201782 
	C389.416779,771.876587 389.121002,778.548279 388.905304,785.221375 
	C382.981476,779.883362 376.681763,774.902283 371.206635,769.138062 
	C356.672546,753.836914 342.494446,738.197693 328.080017,722.369263 
z"/>
<path fill="#6BCBF8" opacity="1.000000" stroke="none" 
	d="
M503.053711,418.188568 
	C502.702545,415.932526 502.065918,413.678833 502.047455,411.420044 
	C501.942230,398.553833 501.984467,385.686432 501.967285,372.342041 
	C530.670654,363.533295 559.760803,361.622345 589.631836,367.354218 
	C589.998047,382.703827 589.996094,397.431549 589.562378,412.190613 
	C577.725830,411.127289 566.339417,409.422363 554.912048,409.078766 
	C537.089844,408.542938 520.025818,413.336670 503.053711,418.188568 
z"/>
<path fill="#6DE2F9" opacity="1.000000" stroke="none" 
	d="
M772.737305,667.909607 
	C773.158020,669.959717 773.932556,672.007812 773.944031,674.060181 
	C774.041382,691.513306 773.940308,708.967651 774.070190,726.420349 
	C774.087830,728.794006 775.052490,731.160583 775.864136,733.802002 
	C757.868225,755.852783 737.627625,775.656067 715.133911,793.824707 
	C713.961243,791.949829 713.079163,790.138550 713.063965,788.319946 
	C712.947449,774.427002 713.059692,760.532166 712.951538,746.639099 
	C712.928650,743.699341 712.292175,740.764282 712.078491,737.529053 
	C713.150513,736.290955 714.139587,735.400513 715.005859,734.403442 
	C734.257874,712.245911 753.496277,690.076660 772.737305,667.909607 
z"/>
<path fill="#6CD3F9" opacity="1.000000" stroke="none" 
	d="
M589.994141,412.159241 
	C589.996094,397.431549 589.998047,382.703827 590.000488,367.510376 
	C598.691162,368.880066 607.551819,370.142609 616.036133,372.669189 
	C634.213074,378.082123 651.509033,385.718628 667.858398,395.770935 
	C667.177673,398.650970 666.113525,400.978333 666.080139,403.320374 
	C665.907959,415.403259 666.045654,427.490234 665.956238,439.574890 
	C665.940613,441.678070 665.355835,443.777039 664.701904,445.803467 
	C662.151123,444.270416 659.942261,442.796570 657.712097,441.355591 
	C636.776306,427.828247 614.189209,418.128326 589.994141,412.159241 
z"/>
<path fill="#6DDFF9" opacity="1.000000" stroke="none" 
	d="
M665.033875,445.877930 
	C665.355835,443.777039 665.940613,441.678070 665.956238,439.574890 
	C666.045654,427.490234 665.907959,415.403259 666.080139,403.320374 
	C666.113525,400.978333 667.177673,398.650970 668.076538,396.046326 
	C683.467407,406.105469 698.680420,416.249298 713.565430,426.853363 
	C719.780884,431.281250 725.299194,436.687744 731.098755,442.340790 
	C730.708618,445.465576 730.060974,447.897156 730.047058,450.332397 
	C729.946472,467.924042 729.973938,485.516449 729.651855,502.972656 
	C723.171387,496.575409 717.377625,489.877899 710.751892,484.141296 
	C695.730225,471.135498 680.298706,458.602905 665.033875,445.877930 
z"/>
<path fill="#69BAF7" opacity="1.000000" stroke="none" 
	d="
M389.059143,785.512756 
	C389.121002,778.548279 389.416779,771.876587 389.530304,765.201782 
	C389.647003,758.339050 389.591248,751.473328 389.600372,744.608887 
	C389.605347,740.844910 389.460907,737.075134 389.629730,733.319092 
	C389.729614,731.096375 390.308960,728.895325 391.137695,726.489624 
	C395.822021,730.552063 399.733734,735.178162 404.315857,739.000671 
	C420.780365,752.735901 437.471375,766.199585 454.055054,780.187134 
	C453.862946,790.454163 453.725555,800.300781 453.510742,810.145630 
	C453.364349,816.854370 453.109802,823.560852 452.903656,830.268311 
	C442.784698,824.204529 432.265808,818.708191 422.649872,811.930664 
	C411.102478,803.791870 400.324280,794.561707 389.059143,785.512756 
z"/>
<path fill="#6CDAF9" opacity="1.000000" stroke="none" 
	d="
M711.938416,737.827087 
	C712.292175,740.764282 712.928650,743.699341 712.951538,746.639099 
	C713.059692,760.532166 712.947449,774.427002 713.063965,788.319946 
	C713.079163,790.138550 713.961243,791.949829 714.815552,793.919434 
	C699.965576,806.888306 684.075928,818.705322 666.124573,827.544434 
	C660.912476,830.110901 655.950806,833.186157 650.220398,835.858154 
	C649.323914,834.341858 648.896545,832.999634 648.867188,831.648682 
	C648.545288,816.822144 648.285339,801.994263 648.238892,786.906372 
	C662.528381,776.652893 676.790405,766.929138 690.566467,756.559692 
	C698.114258,750.878479 704.841309,744.106995 711.938416,737.827087 
z"/>
<path fill="#6DE4FA" opacity="1.000000" stroke="none" 
	d="
M729.960876,503.108612 
	C729.973938,485.516449 729.946472,467.924042 730.047058,450.332397 
	C730.060974,447.897156 730.708618,445.465576 731.277588,442.600739 
	C745.476135,456.461853 759.494629,470.721039 773.420349,485.070221 
	C777.000061,488.758911 780.287598,492.731232 783.824097,496.896576 
	C783.292603,499.921783 782.111877,502.618652 782.086731,505.326294 
	C781.919739,523.312683 782.012451,541.301270 781.982361,559.289185 
	C781.979065,561.272400 781.733276,563.255188 781.133667,565.397095 
	C763.765259,544.740173 746.863037,523.924377 729.960876,503.108612 
z"/>
<path fill="#6CD3F9" opacity="1.000000" stroke="none" 
	d="
M648.008606,787.166748 
	C648.285339,801.994263 648.545288,816.822144 648.867188,831.648682 
	C648.896545,832.999634 649.323914,834.341858 649.865967,835.885010 
	C629.215820,846.479980 607.202820,853.457092 583.531799,856.191162 
	C582.738464,853.791626 582.138489,851.843506 582.158752,849.901794 
	C582.293152,837.069275 582.560669,824.238098 583.135010,811.266357 
	C586.739197,810.493713 590.012207,809.945679 593.243896,809.215088 
	C612.684875,804.819885 630.579224,796.567200 648.008606,787.166748 
z"/>
<path fill="#6AC5F8" opacity="1.000000" stroke="none" 
	d="
M453.125854,830.517273 
	C453.109802,823.560852 453.364349,816.854370 453.510742,810.145630 
	C453.725555,800.300781 453.862946,790.454163 454.399841,780.269348 
	C474.038116,792.606445 494.809265,801.986572 517.002319,808.695435 
	C516.999878,824.158264 516.997009,839.167664 516.994080,854.177002 
	C499.386841,851.057739 482.829712,844.750610 466.616180,837.453003 
	C462.104248,835.422241 457.765991,833.005798 453.125854,830.517273 
z"/>
<path fill="#6BCBF8" opacity="1.000000" stroke="none" 
	d="
M517.299622,854.416992 
	C516.997009,839.167664 516.999878,824.158264 517.384521,808.708252 
	C539.203247,814.200867 560.905762,814.631592 582.784790,811.406494 
	C582.560669,824.238098 582.293152,837.069275 582.158752,849.901794 
	C582.138489,851.843506 582.738464,853.791626 583.091309,856.178284 
	C565.336182,859.170410 547.540161,858.877319 529.753418,856.569092 
	C525.689697,856.041748 521.653870,855.300049 517.299622,854.416992 
z"/>
<path fill="#171717" opacity="1.000000" stroke="none" 
	d="
M583.135010,811.266357 
	C560.905762,814.631592 539.203247,814.200867 517.384155,808.254761 
	C494.809265,801.986572 474.038116,792.606445 454.421539,779.848145 
	C437.471375,766.199585 420.780365,752.735901 404.315857,739.000671 
	C399.733734,735.178162 395.822021,730.552063 391.296997,726.162415 
	C374.886810,707.059631 358.694427,688.162659 342.733124,669.072510 
	C338.124329,663.560120 334.180054,657.492188 329.667480,651.433838 
	C321.400391,639.156738 313.498993,627.054688 305.321564,615.142090 
	C303.285492,612.176025 303.460144,610.068115 305.437012,607.243042 
	C316.964935,590.768311 328.338440,574.185486 339.847137,557.309937 
	C353.541504,540.490173 366.693573,523.590149 380.911957,507.640778 
	C391.947296,495.261993 404.313934,484.069946 416.257904,472.087646 
	C433.107147,459.738892 449.304260,446.895447 466.641388,435.839722 
	C477.745911,428.758484 490.532684,424.315216 502.809509,418.438965 
	C520.025818,413.336670 537.089844,408.542938 554.912048,409.078766 
	C566.339417,409.422363 577.725830,411.127289 589.562378,412.190613 
	C614.189209,418.128326 636.776306,427.828247 657.712097,441.355591 
	C659.942261,442.796570 662.151123,444.270416 664.701904,445.803467 
	C680.298706,458.602905 695.730225,471.135498 710.751892,484.141296 
	C717.377625,489.877899 723.171387,496.575409 729.651855,502.972656 
	C746.863037,523.924377 763.765259,544.740173 780.943604,565.757935 
	C790.509705,579.744385 799.719788,593.583801 809.153320,607.269287 
	C811.175842,610.203430 811.150757,612.317017 809.109924,615.218018 
	C796.958069,632.491455 784.984314,649.890259 772.844055,667.578308 
	C753.496277,690.076660 734.257874,712.245911 715.005859,734.403442 
	C714.139587,735.400513 713.150513,736.290955 712.078491,737.529053 
	C704.841309,744.106995 698.114258,750.878479 690.566467,756.559692 
	C676.790405,766.929138 662.528381,776.652893 648.238892,786.906372 
	C630.579224,796.567200 612.684875,804.819885 593.243896,809.215088 
	C590.012207,809.945679 586.739197,810.493713 583.135010,811.266357 
M469.254852,652.754578 
	C479.090912,624.568542 488.926941,596.382446 498.762970,568.196411 
	C499.189606,568.284180 499.616211,568.371887 500.042847,568.459656 
	C500.042847,570.218689 500.042847,571.977783 500.042847,573.736816 
	C500.042938,611.558228 500.042938,649.379700 500.043518,687.201111 
	C500.043518,688.533997 500.113037,689.870544 500.039062,691.199158 
	C499.849945,694.594421 501.407135,696.080078 504.801727,695.970581 
	C508.296875,695.857849 511.798737,695.965576 515.297546,695.949463 
	C521.759277,695.919739 521.962402,695.732544 521.963562,689.122131 
	C521.972046,639.637695 521.968323,590.153320 521.968323,540.668884 
	C521.968323,540.169067 521.915405,539.662964 521.974670,539.170349 
	C522.437744,535.321045 520.892273,533.737671 516.895386,533.933228 
	C511.576508,534.193420 506.235260,533.995239 500.903595,533.995300 
	C492.266357,533.995361 492.266815,533.996033 489.466400,542.159424 
	C477.092773,578.229919 464.714935,614.298950 452.348877,650.372009 
	C450.233978,656.541321 448.168701,662.727600 446.080505,668.906067 
	C442.899139,661.970703 440.828583,655.140381 438.562378,648.375610 
	C432.588226,630.542358 426.498779,612.747803 420.512177,594.918701 
	C414.155304,575.986633 407.813751,557.049011 401.594940,538.071411 
	C400.593201,535.014465 398.923553,533.881775 395.772278,533.949951 
	C388.611267,534.105042 381.444519,533.992432 374.280121,533.996460 
	C367.036804,534.000488 367.030823,534.004639 367.030487,541.495056 
	C367.028534,588.147034 367.029449,634.799011 367.029449,681.450989 
	C367.029449,695.986572 367.029419,695.986511 381.532837,695.952942 
	C388.973450,695.935730 388.985077,695.935791 388.985992,688.403564 
	C388.990906,648.749390 388.989471,609.095215 388.990234,569.441040 
	C388.990265,567.820312 388.990234,566.199524 388.990234,564.578796 
	C393.629730,575.340759 397.163788,586.091064 400.804718,596.805176 
	C410.448761,625.184631 420.038422,653.583252 429.848663,681.905396 
	C435.752228,698.948975 431.269806,695.497742 449.551758,695.996887 
	C453.136383,696.094727 454.986206,694.702148 456.107391,691.317932 
	C460.295319,678.676392 464.694336,666.104736 469.254852,652.754578 
M598.488403,624.033752 
	C615.162781,621.864258 627.181519,629.385864 636.095825,642.636169 
	C647.055603,658.926819 657.645691,675.466003 668.465088,691.851807 
	C669.425842,693.306824 670.857361,695.475464 672.141113,695.526489 
	C680.507690,695.858582 688.893860,695.697144 697.273682,695.697144 
	C697.583740,695.219788 697.893860,694.742432 698.203979,694.265076 
	C680.410706,670.238220 669.647217,640.995300 642.934021,622.582214 
	C645.283081,621.877319 647.055176,621.576172 648.620300,620.836975 
	C656.380188,617.171997 665.051514,614.602661 671.595947,609.383179 
	C682.952942,600.325439 685.995911,587.082458 684.963318,572.916626 
	C683.830566,557.375977 672.892578,542.032227 659.066833,538.027893 
	C651.477417,535.829773 643.427612,534.333191 635.552307,534.175293 
	C611.239014,533.688049 586.909790,533.991516 562.586792,533.998474 
	C555.997131,534.000305 555.979614,534.017578 555.978882,540.628113 
	C555.973572,587.608154 555.976074,634.588257 555.976013,681.568298 
	C555.976013,696.335754 555.975952,696.335815 570.837463,695.948486 
	C577.350769,695.778748 577.990845,695.153076 577.994080,688.738220 
	C578.003845,669.246521 578.125427,649.753296 577.904785,630.264099 
	C577.851929,625.599060 579.015015,623.527954 584.005371,623.953857 
	C588.470947,624.334961 592.994690,624.033936 598.488403,624.033752 
M743.781982,536.007629 
	C742.259460,535.337891 740.771179,534.205872 739.207642,534.090027 
	C735.396729,533.807739 731.551025,533.989319 727.719299,533.997009 
	C721.053772,534.010315 721.034546,534.014404 721.033691,540.550964 
	C721.027832,585.698547 721.030273,630.846191 721.030701,675.993774 
	C721.030762,680.991638 721.147766,685.992920 720.999329,690.986328 
	C720.890320,694.653564 722.467834,696.115601 726.072449,695.981873 
	C730.065186,695.833618 734.084778,695.719543 738.061707,696.011719 
	C742.781494,696.358459 744.038635,694.278503 744.027771,689.839172 
	C743.903259,638.861328 743.924622,587.882996 743.781982,536.007629 
z"/>
<path fill="#323232" opacity="1.000000" stroke="none" 
	d="
M469.134521,653.130737 
	C464.694336,666.104736 460.295319,678.676392 456.107391,691.317932 
	C454.986206,694.702148 453.136383,696.094727 449.551758,695.996887 
	C431.269806,695.497742 435.752228,698.948975 429.848663,681.905396 
	C420.038422,653.583252 410.448761,625.184631 400.804718,596.805176 
	C397.163788,586.091064 393.629730,575.340759 388.990234,564.578796 
	C388.990234,566.199524 388.990265,567.820312 388.990234,569.441040 
	C388.989471,609.095215 388.990906,648.749390 388.985992,688.403564 
	C388.985077,695.935791 388.973450,695.935730 381.532837,695.952942 
	C367.029419,695.986511 367.029449,695.986572 367.029449,681.450989 
	C367.029449,634.799011 367.028534,588.147034 367.030487,541.495056 
	C367.030823,534.004639 367.036804,534.000488 374.280121,533.996460 
	C381.444519,533.992432 388.611267,534.105042 395.772278,533.949951 
	C398.923553,533.881775 400.593201,535.014465 401.594940,538.071411 
	C407.813751,557.049011 414.155304,575.986633 420.512177,594.918701 
	C426.498779,612.747803 432.588226,630.542358 438.562378,648.375610 
	C440.828583,655.140381 442.899139,661.970703 446.080505,668.906067 
	C448.168701,662.727600 450.233978,656.541321 452.348877,650.372009 
	C464.714935,614.298950 477.092773,578.229919 489.466400,542.159424 
	C492.266815,533.996033 492.266357,533.995361 500.903595,533.995300 
	C506.235260,533.995239 511.576508,534.193420 516.895386,533.933228 
	C520.892273,533.737671 522.437744,535.321045 521.974670,539.170349 
	C521.915405,539.662964 521.968323,540.169067 521.968323,540.668884 
	C521.968323,590.153320 521.972046,639.637695 521.963562,689.122131 
	C521.962402,695.732544 521.759277,695.919739 515.297546,695.949463 
	C511.798737,695.965576 508.296875,695.857849 504.801727,695.970581 
	C501.407135,696.080078 499.849945,694.594421 500.039062,691.199158 
	C500.113037,689.870544 500.043518,688.533997 500.043518,687.201111 
	C500.042938,649.379700 500.042938,611.558228 500.042847,573.736816 
	C500.042847,571.977783 500.042847,570.218689 500.042847,568.459656 
	C499.616211,568.371887 499.189606,568.284180 498.762970,568.196411 
	C488.926941,596.382446 479.090912,624.568542 469.134521,653.130737 
z"/>
<path fill="#323232" opacity="1.000000" stroke="none" 
	d="
M597.990601,624.033813 
	C592.994690,624.033936 588.470947,624.334961 584.005371,623.953857 
	C579.015015,623.527954 577.851929,625.599060 577.904785,630.264099 
	C578.125427,649.753296 578.003845,669.246521 577.994080,688.738220 
	C577.990845,695.153076 577.350769,695.778748 570.837463,695.948486 
	C555.975952,696.335815 555.976013,696.335754 555.976013,681.568298 
	C555.976074,634.588257 555.973572,587.608154 555.978882,540.628113 
	C555.979614,534.017578 555.997131,534.000305 562.586792,533.998474 
	C586.909790,533.991516 611.239014,533.688049 635.552307,534.175293 
	C643.427612,534.333191 651.477417,535.829773 659.066833,538.027893 
	C672.892578,542.032227 683.830566,557.375977 684.963318,572.916626 
	C685.995911,587.082458 682.952942,600.325439 671.595947,609.383179 
	C665.051514,614.602661 656.380188,617.171997 648.620300,620.836975 
	C647.055176,621.576172 645.283081,621.877319 642.934021,622.582214 
	C669.647217,640.995300 680.410706,670.238220 698.203979,694.265076 
	C697.893860,694.742432 697.583740,695.219788 697.273682,695.697144 
	C688.893860,695.697144 680.507690,695.858582 672.141113,695.526489 
	C670.857361,695.475464 669.425842,693.306824 668.465088,691.851807 
	C657.645691,675.466003 647.055603,658.926819 636.095825,642.636169 
	C627.181519,629.385864 615.162781,621.864258 597.990601,624.033813 
M626.334717,604.995422 
	C632.884521,603.924194 639.634521,603.518860 645.936951,601.624512 
	C655.216125,598.835388 660.505798,591.780029 661.796265,582.282288 
	C663.112610,572.594360 660.642151,564.153015 651.981812,558.301453 
	C643.945862,552.871643 634.670349,552.508179 625.615479,552.176514 
	C611.469177,551.658386 597.288818,552.142761 583.125732,551.967651 
	C579.215027,551.919312 577.880554,553.216553 577.929871,557.148499 
	C578.107544,571.311523 578.122925,585.479797 577.922607,599.642151 
	C577.863892,603.792297 579.250732,605.133484 583.376526,605.074829 
	C597.372192,604.875916 611.372559,604.998047 626.334717,604.995422 
z"/>
<path fill="#323232" opacity="1.000000" stroke="none" 
	d="
M743.844604,536.456238 
	C743.924622,587.882996 743.903259,638.861328 744.027771,689.839172 
	C744.038635,694.278503 742.781494,696.358459 738.061707,696.011719 
	C734.084778,695.719543 730.065186,695.833618 726.072449,695.981873 
	C722.467834,696.115601 720.890320,694.653564 720.999329,690.986328 
	C721.147766,685.992920 721.030762,680.991638 721.030701,675.993774 
	C721.030273,630.846191 721.027832,585.698547 721.033691,540.550964 
	C721.034546,534.014404 721.053772,534.010315 727.719299,533.997009 
	C731.551025,533.989319 735.396729,533.807739 739.207642,534.090027 
	C740.771179,534.205872 742.259460,535.337891 743.844604,536.456238 
z"/>
<path fill="#171717" opacity="1.000000" stroke="none" 
	d="
M625.852905,604.996460 
	C611.372559,604.998047 597.372192,604.875916 583.376526,605.074829 
	C579.250732,605.133484 577.863892,603.792297 577.922607,599.642151 
	C578.122925,585.479797 578.107544,571.311523 577.929871,557.148499 
	C577.880554,553.216553 579.215027,551.919312 583.125732,551.967651 
	C597.288818,552.142761 611.469177,551.658386 625.615479,552.176514 
	C634.670349,552.508179 643.945862,552.871643 651.981812,558.301453 
	C660.642151,564.153015 663.112610,572.594360 661.796265,582.282288 
	C660.505798,591.780029 655.216125,598.835388 645.936951,601.624512 
	C639.634521,603.518860 632.884521,603.924194 625.852905,604.996460 
z"/>
</svg>